<?xml version="1.0" encoding="UTF-8"?>
<svg id="Layer_1" data-name="Layer 1" xmlns="http://www.w3.org/2000/svg" viewBox="0 0 1080 1080">
  <defs>
    <style>
      .cls-1 {
        fill: #fff;
      }

      .cls-2 {
        fill: none;
        stroke: #fff;
        stroke-miterlimit: 10;
        stroke-width: 29.38px;
      }
    </style>
  </defs>
  <circle cx="541.3" cy="533.96" r="528.04"/>
  <g>
    <g>
      <path class="cls-1" d="M832.69,499.24v56.07c0,14.39-7.72,27.66-20.19,34.75l-174.75,99.63h-.04l-94.09-57.12c-13.98-8.48-13.72-28.83,.46-36.93l228.72-131.07c26.65-15.28,59.89,3.94,59.89,34.67Z"/>
      <path class="cls-1" d="M832.69,193.21v66.52c0,14.27-7.6,27.45-19.93,34.58l-139.71,81.04c-12.51,7.26-27.95,7.18-40.37-.13l-117.51-69.25,.97-1.64,256.8-145.92c26.65-15.15,59.76,4.11,59.76,34.79Z"/>
    </g>
    <g>
      <path class="cls-2" d="M637.75,689.69l175.68,106.6c11.96,7.26,19.26,20.23,19.26,34.16v44.28c0,30.93-33.62,50.15-60.31,34.46l-450.52-265.19c-26.02-15.32-26.31-52.88-.5-68.62l134.13-81.63c25.81-15.7,25.52-53.26-.5-68.62l-185.37-109.16c-12.21-7.22-19.68-20.31-19.68-34.46v-61.86c0-30.93,33.62-50.15,60.27-34.46l204.97,120.78,117.51,69.25c12.42,7.3,27.87,7.39,40.37,.13l139.71-81.04c12.34-7.13,19.93-20.31,19.93-34.58v-66.52c0-30.68-33.11-49.94-59.76-34.79l-256.8,145.92"/>
      <path class="cls-2" d="M637.71,689.69h.04l174.75-99.63c12.46-7.09,20.19-20.35,20.19-34.75v-56.07c0-30.72-33.24-49.94-59.89-34.67l-228.72,131.07c-14.19,8.1-14.44,28.45-.46,36.93l94.09,57.12"/>
    </g>
  </g>
</svg>